<svg xmlns="http://www.w3.org/2000/svg" version="1.1" xmlns:xlink="http://www.w3.org/1999/xlink" width="512" height="512" x="0" y="0" viewBox="0 0 512 512" style="enable-background:new 0 0 512 512" xml:space="preserve" class=""><g><path d="M361.495 289.87c0 4.143 3.357 7.5 7.5 7.5h32.696c4.351 0 8.069-2.814 9.255-7.004 1.182-4.18-.508-8.516-4.206-10.791-8.745-5.375-11.848-10.012-11.848-12.35V34.113c0-18.438-14.992-33.738-33.42-34.105-.175-.004-.348.002-.522.001-.057-.002-.112-.009-.17-.009h-99.06c-18.803 0-34.1 15.302-34.1 34.11v14.25h-12.85c-11.545 0-22.415 5.826-28.849 15.316a34.106 34.106 0 0 0-1.104 1.724 34.596 34.596 0 0 0-3.534 8.156 34.893 34.893 0 0 0-1.352 8.804h-16.696c-.24-9.32-7.883-16.833-17.265-16.833h-23.559v-5.699c0-4.143-3.357-7.5-7.5-7.5H48.234c-4.143 0-7.5 3.357-7.5 7.5s3.357 7.5 7.5 7.5h59.177V232.493H76.17c-4.143 0-7.5 3.357-7.5 7.5s3.357 7.5 7.5 7.5h38.741c4.143 0 7.5-3.357 7.5-7.5v-5.699h23.559c9.383 0 17.026-7.514 17.265-16.834h16.686v5.32c0 17.479 14.221 31.7 31.7 31.7h16v46.609c-33.561 19.66-56.152 56.104-56.152 97.729 0 62.408 50.773 113.182 113.182 113.182 30.262 0 58.704-11.793 80.087-33.205a7.5 7.5 0 0 0-.007-10.606 7.497 7.497 0 0 0-10.606.007C335.573 486.771 310.9 497 284.649 497c-54.138 0-98.182-44.044-98.182-98.182s44.044-98.182 98.182-98.182 98.182 44.044 98.182 98.182c0 16.403-4.122 32.632-11.921 46.932a7.502 7.502 0 0 0 13.17 7.182c8.996-16.496 13.751-35.208 13.751-54.113 0-41.625-22.591-78.067-56.151-97.728v-46.609h2.227c16.386 0 29.717-13.331 29.717-29.717 0-8.831-3.876-16.769-10.011-22.217 6.135-5.448 10.011-13.386 10.011-22.217 0-8.832-3.877-16.771-10.013-22.218 6.134-5.447 10.01-13.384 10.01-22.213 0-8.832-3.875-16.772-10.01-22.221 6.134-5.448 10.01-13.388 10.01-22.22 0-16.382-13.328-29.71-29.71-29.71h-2.23V34.644c.016-5.284 2.204-10.452 6.015-14.186 3.212-3.149 7.278-5.001 11.554-5.38.144-.011.29-.014.435-.022.495-.032.99-.06 1.489-.052 10.322.206 18.72 8.778 18.72 19.109v233.112c0 5.226 2.189 10.29 6.533 15.145h-17.431a7.5 7.5 0 0 0-7.501 7.5zM261.72 15h21.294a34.253 34.253 0 0 0-4.223 8.623 34.192 34.192 0 0 0-1.64 10.487c0 4.143 3.357 7.5 7.5 7.5s7.5-3.357 7.5-7.5A19.062 19.062 0 0 1 311.25 15h21.262a34.217 34.217 0 0 0-2.321 4.062c-.07.142-.141.284-.209.428a35.07 35.07 0 0 0-.684 1.557c-.126.303-.251.606-.369.914a34.118 34.118 0 0 0-.789 2.304 33.578 33.578 0 0 0-.553 2.034c-.027.114-.048.23-.074.345a32.975 32.975 0 0 0-.384 1.996c-.022.138-.048.274-.068.412a34.224 34.224 0 0 0-.258 2.244c-.012.15-.021.3-.031.45-.054.785-.09 1.572-.09 2.365v.477l-.003.114c0 .02.003.039.003.058v15.042a25.367 25.367 0 0 0-8.406-1.431h-11.383a7.455 7.455 0 0 0-.299-.006H242.62V34.11c0-10.537 8.568-19.11 19.1-19.11zM148.257 217.017a2.284 2.284 0 0 1-2.287 2.277h-23.559V80.527h23.559a2.285 2.285 0 0 1 2.287 2.278v134.212zm63.363 22.463c-9.209 0-16.7-7.491-16.7-16.7v-12.82c0-4.143-3.357-7.5-7.5-7.5h-24.163V97.36h24.165c4.143 0 7.5-3.357 7.5-7.5v-6.64c0-1.761.234-3.501.686-5.179a19.729 19.729 0 0 1 2.1-4.97c3.282-5.523 9.097-9.108 15.443-9.636a20.6 20.6 0 0 1 1.616-.071h91.527c.1.004.199.006.299.006h11.682c5.785 0 10.491 4.706 10.491 10.49v39.723c0 .033-.005.064-.005.097s.004.064.005.097v36.04c0 .432-.346.78-.775.794h-10.875c-10.338-.053-18.733-8.474-18.733-18.824v-29.435c0-4.143-3.357-7.5-7.5-7.5h-21.404c-8.677 0-15.735 7.059-15.735 15.735v4.429c0 17.257-14.039 31.296-31.296 31.296-4.143 0-7.5 3.357-7.5 7.5s3.357 7.5 7.5 7.5c1.749 0 3.473-.106 5.172-.296v78.465h-16zm71.763-109.39v1.696a33.628 33.628 0 0 0 3.406 14.78c-2.831-2.683-4.609-6.466-4.609-10.666 0-2.042.427-4.011 1.203-5.81zm43.297 163.643a112.371 112.371 0 0 0-34.529-7.842V273c0-4.143-3.357-7.5-7.5-7.5s-7.5 3.357-7.5 7.5v12.891a112.342 112.342 0 0 0-34.53 7.842V156.678c15.449-7.51 26.124-23.362 26.124-41.663v-4.429c0-.405.33-.735.735-.735h4.086a29.92 29.92 0 0 0 3.638 3.842c-6.201 5.521-10.024 13.535-10.024 22.207 0 8.829 3.875 16.766 10.01 22.213-6.136 5.447-10.013 13.386-10.013 22.218 0 8.831 3.876 16.769 10.011 22.217-6.135 5.448-10.011 13.386-10.011 22.217 0 16.386 13.331 29.717 29.717 29.717h29.786v39.251zm31.943-68.968c0 8.115-6.602 14.717-14.717 14.717h-9.707l-.019-.001-.019.001h-37.267c-8.115 0-14.717-6.602-14.717-14.717s6.602-14.717 14.717-14.717h47.013c8.114 0 14.716 6.601 14.716 14.717zm-61.729-29.717c-8.115 0-14.717-6.602-14.717-14.717 0-8.114 6.602-14.716 14.717-14.716h47.012c8.115 0 14.717 6.602 14.717 14.716 0 8.115-6.602 14.717-14.717 14.717h-47.012zM358.62 135.9c0 8.111-6.599 14.71-14.71 14.71h-.186c.013-.265.04-.526.04-.794V121.18h.146c8.111 0 14.71 6.603 14.71 14.72zm0-44.44c0 8.116-6.599 14.72-14.71 14.72h-.146V76.75h.146c8.111 0 14.71 6.599 14.71 14.71z" fill="#000000" opacity="1" data-original="#000000" class=""></path><path d="M148.536 303.628c-10.221-3.272-13.135-6.187-16.407-16.409a9.736 9.736 0 0 0-9.306-6.789h-.002a9.736 9.736 0 0 0-9.303 6.79c-3.272 10.222-6.187 13.136-16.409 16.408a9.737 9.737 0 0 0-6.789 9.306 9.738 9.738 0 0 0 6.79 9.305c10.222 3.272 13.136 6.187 16.407 16.405a9.736 9.736 0 0 0 9.304 6.792h.002a9.74 9.74 0 0 0 9.306-6.789c3.272-10.223 6.187-13.136 16.408-16.408a9.737 9.737 0 0 0 6.789-9.305 9.737 9.737 0 0 0-6.79-9.306zm-20.732-11.836c.001 0 .001-.001 0 0l-.001.005.001-.005zm-4.981 30.936c-2.544-4.115-5.679-7.25-9.795-9.795 4.116-2.544 7.251-5.679 9.795-9.795 2.545 4.116 5.679 7.251 9.795 9.795-4.116 2.545-7.25 5.679-9.795 9.795zM464.476 431.948c-10.222-3.272-13.135-6.186-16.407-16.408-1.3-4.061-5.04-6.789-9.306-6.789s-8.006 2.729-9.306 6.789v.001c-3.272 10.222-6.186 13.135-16.408 16.407-4.061 1.3-6.789 5.04-6.789 9.306s2.729 8.006 6.79 9.306c10.222 3.272 13.135 6.186 16.407 16.408 1.3 4.061 5.04 6.789 9.306 6.789s8.006-2.729 9.306-6.79c3.272-10.222 6.186-13.135 16.408-16.407 4.061-1.3 6.789-5.04 6.789-9.306s-2.729-8.006-6.79-9.306zm-25.713 19.102c-2.545-4.116-5.68-7.251-9.796-9.796 4.116-2.545 7.251-5.68 9.796-9.796 2.545 4.116 5.68 7.251 9.796 9.796-4.117 2.545-7.251 5.68-9.796 9.796zM413.05 192.423c10.221 3.272 13.135 6.187 16.407 16.409 1.3 4.061 5.04 6.789 9.306 6.789s8.006-2.729 9.306-6.79c3.272-10.222 6.187-13.136 16.408-16.408a9.737 9.737 0 0 0 6.789-9.306 9.738 9.738 0 0 0-6.79-9.305c-10.221-3.272-13.135-6.186-16.407-16.408-1.3-4.061-5.04-6.789-9.306-6.789s-8.006 2.729-9.306 6.789c-3.272 10.223-6.187 13.136-16.408 16.408a9.737 9.737 0 0 0-6.789 9.305 9.737 9.737 0 0 0 6.79 9.306zm25.713-19.101c2.545 4.116 5.679 7.251 9.795 9.796-4.116 2.544-7.25 5.68-9.795 9.795-2.545-4.116-5.679-7.251-9.795-9.795 4.116-2.545 7.25-5.68 9.795-9.796zM235.53 384.955l18.069-6.087a7.5 7.5 0 0 0-4.789-14.215l-18.069 6.087c-5.521 1.859-9.719 6.104-11.519 11.644-1.801 5.541-.898 11.442 2.476 16.192l14.142 19.911a3.22 3.22 0 0 1 .596 1.837l.263 24.42c.063 5.825 2.802 11.131 7.516 14.555 3.175 2.307 6.883 3.497 10.665 3.497 1.833 0 3.684-.28 5.498-.849l23.305-7.295a3.223 3.223 0 0 1 1.934-.001l23.306 7.296c5.558 1.739 11.451.775 16.164-2.648 4.714-3.424 7.453-8.729 7.516-14.554l.263-24.422a3.219 3.219 0 0 1 .596-1.836l14.143-19.911c3.373-4.75 4.275-10.651 2.475-16.192-1.8-5.54-5.999-9.784-11.52-11.644l-23.145-7.796a3.227 3.227 0 0 1-1.563-1.136l-14.566-19.603c-3.475-4.676-8.809-7.357-14.634-7.357s-11.159 2.682-14.634 7.357l-3.604 4.85a7.502 7.502 0 0 0 1.547 10.494c3.324 2.467 8.023 1.778 10.493-1.547l3.604-4.85c.844-1.135 1.987-1.305 2.595-1.305s1.751.17 2.595 1.305l14.565 19.603a18.15 18.15 0 0 0 8.814 6.403l23.144 7.796c1.341.451 1.855 1.487 2.043 2.064s.38 1.718-.438 2.871L321.234 409.8a18.14 18.14 0 0 0-3.367 10.36l-.263 24.422c-.015 1.413-.841 2.223-1.332 2.579-.49.356-1.512.895-2.866.47l-23.307-7.296a18.166 18.166 0 0 0-10.894 0l-23.307 7.296c-1.353.424-2.375-.113-2.865-.47-.491-.356-1.317-1.166-1.332-2.58l-.263-24.42a18.141 18.141 0 0 0-3.367-10.361l-14.141-19.911c-.819-1.153-.627-2.294-.439-2.871s.699-1.612 2.039-2.063z" fill="#000000" opacity="1" data-original="#000000" class=""></path></g></svg>