<svg xmlns="http://www.w3.org/2000/svg" version="1.1" xmlns:xlink="http://www.w3.org/1999/xlink" width="512" height="512" x="0" y="0" viewBox="0 0 512 512" style="enable-background:new 0 0 512 512" xml:space="preserve" class=""><g transform="matrix(0.9999999999999999,0,0,0.9999999999999999,5.684341886080802e-14,-1.1368683772161603e-13)"><path d="M257.3 420.034h-.006a8 8 0 0 0-7.994 8.006l.052 76.142a8 8 0 0 0 8 7.994 8 8 0 0 0 8-8.006l-.052-76.142a8 8 0 0 0-8-7.994zM115.946 435.484a8 8 0 0 0-8 8v60.475a8 8 0 0 0 16 0v-60.475a8 8 0 0 0-8-8z" fill="#000000" opacity="1" data-original="#000000" class=""></path><path d="m505.956 237.073-4.607-4.759a8 8 0 0 0-11.776.305l-68.492 78.487a25.442 25.442 0 0 0 4.275-13.815v-6.134c2.712-2.642 6.537-6.807 8.373-10.834 10.055-22.045-3.917-37.077-4.517-37.706a7.948 7.948 0 0 0-6.072-2.566 7.747 7.747 0 0 0-5.794 2.879 5.89 5.89 0 0 1-1.829 1.321 40.672 40.672 0 0 1-4.548-1.381 55.806 55.806 0 0 0-20.294-3.589c-11.312 0-18.912 2.863-24.027 6.779l35.637-54.588a25.49 25.49 0 0 0-3.047-31.83l-6.029-6.227a8 8 0 0 0-11.775.305l-93.311 106.926-6.369 1.354v-2.3c6.379-6.291 11.019-14.59 11.019-23.687v-8.962c3.389-3.223 8.671-8.763 11.071-14.026 12.38-27.142-4.683-45.5-5.416-46.272a7.9 7.9 0 0 0-6.027-2.476 8 8 0 0 0-5.871 2.829c-.726.858-3.177 2.733-4.327 2.514a50.994 50.994 0 0 1-6.485-1.932 70.276 70.276 0 0 0-25.543-4.525c-13.311 0-36.41 3.571-41.562 27.491-4.043 18.773 6.916 31.393 12.932 36.716v8.643c0 9.114 4.643 17.427 11.019 23.722v2.224l-6.194-1.321-93.311-106.918a8 8 0 0 0-11.775-.305l-6.029 6.227a25.49 25.49 0 0 0-3.047 31.83l31.715 48.579h-.017a7.749 7.749 0 0 0-5.8 2.879 5.879 5.879 0 0 1-1.829 1.321 40.451 40.451 0 0 1-4.547-1.381 55.8 55.8 0 0 0-20.294-3.589c-25.2 0-32.02 14.189-33.841 22.646-3.173 14.732 4.912 24.837 9.932 29.5v5.863a26.5 26.5 0 0 0 6.388 16.733l-.566-.128-70.922-81.276a8 8 0 0 0-11.776-.305l-4.607 4.759a21.357 21.357 0 0 0-2.552 26.667l60.4 92.519a49.955 49.955 0 0 1 7.216 25.861v121.57a8 8 0 0 0 16 0v-84.007h57.6v84.007a8 8 0 0 0 16 0V382.12a49.953 49.953 0 0 1 7.216-25.861l18.036-27.626a8 8 0 1 0-13.4-8.746l-18.108 27.737a9.697 9.697 0 0 0-.136.215 65.946 65.946 0 0 0-9.61 34.281v21.563h-57.6V382.12a65.953 65.953 0 0 0-9.606-34.28 7.902 7.902 0 0 0-.137-.216l-60.473-92.63a5.439 5.439 0 0 1-.52-4.981l66.647 76.372a8 8 0 0 0 4.265 2.544l9.333 2.107c1.9 6.095 8.039 15.5 20.785 15.5 12.32 0 18.389-9.027 19.886-16.059l7.15-1.524a8 8 0 0 0 4.36-2.564l21.087-24.165a8 8 0 0 0-12.055-10.52l-14.265 16.347a24.587 24.587 0 0 0 2.56-10.756v-6.134c2.71-2.642 6.536-6.807 8.372-10.833a36.846 36.846 0 0 0 3.5-18.726l33.281 50.981a67.834 67.834 0 0 1 9.82 35.156l.013 38.386c0 .085-.013.168-.013.254s.011.171.013.258l.04 117.194a8 8 0 0 0 8 8 8 8 0 0 0 8-8l-.037-109.446h80.31l.037 109.452a8 8 0 0 0 8 8 8 8 0 0 0 8-8l-.059-156.105a67.83 67.83 0 0 1 9.822-35.154l33.93-51.974c-.119.453-.227.9-.319 1.323-3.173 14.732 4.912 24.837 9.932 29.5v5.863a25.46 25.46 0 0 0 3.985 13.41l-16.578-19a8 8 0 0 0-12.055 10.52l21.083 24.165a8 8 0 0 0 4.36 2.564l8.18 1.744c1.768 6.078 7.9 15.839 20.891 15.839 12.195 0 18.267-8.847 19.841-15.846l8.148-1.737a8 8 0 0 0 4.359-2.564l66.647-76.372a5.442 5.442 0 0 1-.519 4.981l-60.472 92.63a7.902 7.902 0 0 0-.137.216 65.953 65.953 0 0 0-9.609 34.28v21.563H367.3V382.12a65.948 65.948 0 0 0-9.61-34.281 9.697 9.697 0 0 0-.136-.215l-17.933-27.47a8 8 0 0 0-13.4 8.746l17.861 27.36a49.946 49.946 0 0 1 7.216 25.86V504a8 8 0 0 0 16 0v-84.317h57.6V504a8 8 0 0 0 16 0V382.12a49.947 49.947 0 0 1 7.215-25.859l60.4-92.521a21.357 21.357 0 0 0-2.557-26.667zm-402.424 60.218v-6.022a21.708 21.708 0 0 0 1.412-1.654q.995-1.3 1.8-2.483a42.02 42.02 0 0 0 7.915 1.9c6.721.934 11.365.138 15.321-1.586.055.3.1.58.146.868v8.98c0 2.871-1.871 6.152-5.133 9-3.637 3.179-7.159 4.248-8.207 4.248-3.612 0-13.254-6.442-13.254-13.251zm-10.291-32c.59-2.739 2.157-10.015 18.2-10.015A40.281 40.281 0 0 1 126.534 258a51.315 51.315 0 0 0 6.837 1.986 15.262 15.262 0 0 0 7.985-.564 19.225 19.225 0 0 1-.642 12.379 10.23 10.23 0 0 0-3.63-2.69 9.471 9.471 0 0 0-9.261 1.05c-3.9 2.764-5.359 3.8-10.97 3.02a24.774 24.774 0 0 1-9.012-3.041 7.938 7.938 0 0 0-6.985-1.083 7.719 7.719 0 0 0-4.967 4.881 16.925 16.925 0 0 1-.862 1.738 13.933 13.933 0 0 1-1.786-10.376zm24.159 65.241a5.364 5.364 0 0 1-5.371-3.834v-.782a18.4 18.4 0 0 0 9.6-.021v1.4c-.235 1.343-1.113 3.237-4.229 3.237zm159.373-105.7v11.185c0 10.673-14.282 19.556-19.671 19.556-5.357 0-19.557-8.883-19.557-19.556v-8.772a25.737 25.737 0 0 0 2.321-2.626 66.189 66.189 0 0 0 3.261-4.645 52.25 52.25 0 0 0 11.544 2.979c9.656 1.334 15.806-.26 21.216-3.188.359 1.454.681 3.047.913 4.55-.011.175-.027.346-.027.521zm-28.209 45.126a23.456 23.456 0 0 0 17.19-.033v5.094c-.451 2.582-2.088 6.476-7.851 6.476a9.4 9.4 0 0 1-9.339-6.952zm-24.31-75.931c.792-3.676 3.2-14.86 25.921-14.86a54.864 54.864 0 0 1 20.342 3.656 64.645 64.645 0 0 0 8.559 2.492 17.993 17.993 0 0 0 11.341-1.54c2.025 4.957 3.358 12.775-1.13 22.616a10.669 10.669 0 0 1-.754 1.341c-2.382-4.5-4.906-5.587-6.042-6.075a9.919 9.919 0 0 0-9.7 1.116c-5.487 3.89-8.029 5.423-15.923 4.331a34.23 34.23 0 0 1-12.685-4.326 7.953 7.953 0 0 0-11.963 3.822 32.833 32.833 0 0 1-3.166 5.661 21.021 21.021 0 0 1-4.8-18.23zm85.5 109.91c-.046.072-.091.143-.135.215a83.825 83.825 0 0 0-12.219 43.583l.011 30.64H217.1l-.011-30.643a83.839 83.839 0 0 0-12.215-43.576c-.044-.072-.09-.143-.136-.215l-79.132-121.215a9.574 9.574 0 0 1 1.12-11.929l89.342 102.378a7.993 7.993 0 0 0 4.36 2.564l12.6 2.685c1.988 7.188 9.257 19.075 24.88 19.075 15.6 0 21.931-11.53 23.489-19.058l12.673-2.7a7.989 7.989 0 0 0 4.36-2.564L387.768 170.8a9.574 9.574 0 0 1 1.119 11.929zm73.013-6.65v-6.022a21.708 21.708 0 0 0 1.412-1.654q1-1.3 1.8-2.483a42.009 42.009 0 0 0 7.914 1.9c6.722.934 11.365.138 15.32-1.586.056.3.1.58.146.868v8.98c0 2.871-1.87 6.152-5.132 9-3.638 3.179-7.159 4.248-8.207 4.248-3.611.004-13.254-6.438-13.254-13.247zm-10.29-32c.589-2.739 2.156-10.015 18.2-10.015A40.285 40.285 0 0 1 405.768 258a51.315 51.315 0 0 0 6.837 1.986 15.261 15.261 0 0 0 7.985-.564 19.244 19.244 0 0 1-.642 12.379 10.238 10.238 0 0 0-3.629-2.69 9.475 9.475 0 0 0-9.263 1.05c-3.9 2.763-5.354 3.8-10.969 3.02a24.754 24.754 0 0 1-9.011-3.041 7.935 7.935 0 0 0-6.984-1.083 7.718 7.718 0 0 0-4.968 4.881 16.97 16.97 0 0 1-.843 1.706 13.9 13.9 0 0 1-1.805-10.344zm24.159 65.236a5.363 5.363 0 0 1-5.371-3.834v-.779a18.428 18.428 0 0 0 9.595-.025v1.4c-.232 1.353-1.11 3.247-4.225 3.247z" fill="#000000" opacity="1" data-original="#000000" class=""></path><path d="M396.134 435.484a8 8 0 0 0-8 8V504a8 8 0 0 0 16 0v-60.516a8 8 0 0 0-8-8zM309.782 129.836a18.42 18.42 0 0 0 7.288 12.174c.14.1.283.2.428.3l5.333 3.445a8 8 0 0 0 8.683-13.439l-5.042-3.257a2.541 2.541 0 0 1-.389-3.445 18.559 18.559 0 0 0-3.834-25.936l-3.632-2.7a8 8 0 0 0-9.536 12.848l3.63 2.694a2.542 2.542 0 0 1 .526 3.552 18.42 18.42 0 0 0-3.455 13.764zM386.226 47.8l-.376 7.462a8 8 0 0 0 7.588 8.392c.137.007.273.01.409.01a8 8 0 0 0 7.983-7.6l.4-8.025A15.424 15.424 0 0 0 388.176 31.9l.3-6.04a8 8 0 1 0-15.979-.8l-.333 6.6a15.427 15.427 0 0 0 14.062 16.14zM244.312 123.875l4.682 7.21a8 8 0 1 0 13.419-8.715l-4.512-6.947a6.278 6.278 0 0 1 2.5-8.351 22.266 22.266 0 0 0 8.535-30.313l-2.994-5.342a8 8 0 1 0-13.956 7.824l2.994 5.342a6.267 6.267 0 0 1-2.4 8.532 22.3 22.3 0 0 0-8.536 30.314q.126.226.268.446zM247.132 45.94a7.993 7.993 0 0 0 10.74-3.556 6.217 6.217 0 0 1 2.531-2.641 22.293 22.293 0 0 0 8.534-30.313l-2.994-5.342a8 8 0 1 0-13.956 7.824l2.994 5.342a6.276 6.276 0 0 1-2.4 8.533 22.173 22.173 0 0 0-9 9.413 8 8 0 0 0 3.551 10.74zM427.24 96.926l6.122.073a6.278 6.278 0 0 1 6.193 6.344 22.294 22.294 0 0 0 22 22.536h.1c.142 0 .283 0 .424-.011l8.584-.455a8 8 0 1 0-.846-15.978l-8.272.439a6.277 6.277 0 0 1-5.985-6.34 22.3 22.3 0 0 0-22-22.534l-6.124-.073h-.1a8 8 0 0 0-.093 16zM300.685 46.592l11.115 2.565a2.542 2.542 0 0 1 1.9 3.044 18.538 18.538 0 0 0 13.9 22.234l9.143 2.11a8 8 0 1 0 3.6-15.59l-9.144-2.11a2.537 2.537 0 0 1-1.9-3.045A18.561 18.561 0 0 0 315.4 33.567L304.283 31a8 8 0 1 0-3.6 15.59zM374.866 121.517a8 8 0 0 0 13.277-8.928l-6.458-9.605a8 8 0 0 0-13.278 8.928zM199.288 112.522l3.631-2.7a8 8 0 0 0-9.536-12.848l-3.633 2.7a18.56 18.56 0 0 0-3.833 25.936 2.54 2.54 0 0 1-.389 3.444l-5.042 3.257a8 8 0 1 0 8.683 13.439l5.333-3.445c.145-.094.288-.194.428-.3a18.539 18.539 0 0 0 3.833-25.936 2.542 2.542 0 0 1 .525-3.547zM110.17 56.07a8 8 0 0 0 7.983 7.6c.136 0 .272 0 .409-.01a8 8 0 0 0 7.588-8.392l-.376-7.462a15.427 15.427 0 0 0 14.058-16.142l-.333-6.6a8 8 0 1 0-15.979.8l.3 6.04a15.424 15.424 0 0 0-14.057 16.142zM41.343 125.414l8.584.455c.141.007.282.011.424.011h.1a22.293 22.293 0 0 0 22-22.535A6.278 6.278 0 0 1 78.637 97l6.123-.073a8 8 0 1 0-.191-16L78.444 81a22.3 22.3 0 0 0-22 22.535 6.277 6.277 0 0 1-5.985 6.339l-8.272-.439a8 8 0 1 0-.846 15.978zM173.456 76.752a8.016 8.016 0 0 0 1.806-.207l9.142-2.11A18.539 18.539 0 0 0 198.3 52.2a2.541 2.541 0 0 1 1.9-3.045l11.112-2.565a8 8 0 1 0-3.6-15.59L196.6 33.567a18.562 18.562 0 0 0-13.9 22.234 2.536 2.536 0 0 1-1.9 3.044l-9.143 2.11a8 8 0 0 0 1.793 15.8zM130.315 102.984l-6.458 9.605a8 8 0 1 0 13.277 8.928l6.459-9.6a8 8 0 0 0-13.278-8.928z" fill="#000000" opacity="1" data-original="#000000" class=""></path></g></svg>