<svg xmlns="http://www.w3.org/2000/svg" version="1.1" xmlns:xlink="http://www.w3.org/1999/xlink" width="512" height="512" x="0" y="0" viewBox="0 0 99.27 100" style="enable-background:new 0 0 512 512" xml:space="preserve" class=""><g><g data-name="Layer 2"><g data-name="Layer 1"><path d="M85.15 79.94a1.17 1.17 0 0 0-.05-.2l-5.53-15 1.8-16.32A239.77 239.77 0 0 1 92.81 23a3.83 3.83 0 0 0 .19-3 3.87 3.87 0 0 0-7.06-.53L75 39.89l-13.32 1.7a1 1 0 0 0-.58.29L49.48 53.56a1 1 0 0 0-.28.55l-2.07 13.42a3.77 3.77 0 0 0 3.53 4.34 3.73 3.73 0 0 0 3.92-3.14l1.84-11 6.41-5-.86 10-8.59 16.43a1 1 0 0 0-.08.21L49.42 94a4.78 4.78 0 0 0 3.39 5.83A4.57 4.57 0 0 0 54 100a4.79 4.79 0 0 0 4.6-3.47l3.8-13.32 7.54-10.59 5.73 9.79 2 13.25a4.76 4.76 0 0 0 5.67 4h.1a4.78 4.78 0 0 0 3.76-5.34zm-2.22 17.72a2.76 2.76 0 0 1-3.29-2.3l-2-13.43a.92.92 0 0 0-.13-.36l-6.61-11.3a1 1 0 0 0-1.68-.07l-8.53 12a1 1 0 0 0-.14.3L56.7 96a2.77 2.77 0 0 1-5.34-1.47L55.21 80l8.63-16.5a1 1 0 0 0 .11-.38L65 50.66a1 1 0 0 0-.52-1 1 1 0 0 0-1.09.09l-8.53 6.63a1 1 0 0 0-.37.62l-1.88 11.4a1.8 1.8 0 0 1-1.84 1.48 1.79 1.79 0 0 1-1.66-2l2-13.09 11.16-11.26 13.49-1.73a1 1 0 0 0 .75-.52l11.2-20.93a1.87 1.87 0 0 1 2.4-.83 1.87 1.87 0 0 1 .89 2.55 242.37 242.37 0 0 0-11.55 25.77 1 1 0 0 0 0 .24l-1.9 16.68a1 1 0 0 0 .06.46l5.58 15.11 2 14.21a2.78 2.78 0 0 1-2.26 3.12z" fill="#000000" opacity="1" data-original="#000000"></path><path d="M67.26 23.39a7.83 7.83 0 1 0 7.83 7.83 7.84 7.84 0 0 0-7.83-7.83zm0 13.66a5.83 5.83 0 1 1 5.83-5.83 5.84 5.84 0 0 1-5.83 5.83zM38.64 64.43l2.06-11.6 10.07-18.61a1 1 0 0 0 .07-.79L46.38 20a3.83 3.83 0 1 0-7.29 2.38l3.32 10.31-6 9L26 43.21l-7.3-7.59L20 25.33a3.77 3.77 0 0 0-3.83-4.25 3.69 3.69 0 0 0-2.38.94 3.74 3.74 0 0 0-1.23 2.24l-2.08 13.63a1 1 0 0 0 .18.75L21.27 53l-6.9 12.18a1 1 0 0 0-.12.64l4.31 29.76a4.73 4.73 0 0 0 4.69 4.07 5.25 5.25 0 0 0 .56 0h.34a4.73 4.73 0 0 0 4.2-5.05l-1.63-23.23 1-.68 6.62 9.15-3.29 13.87a4.75 4.75 0 0 0 9.21 2.34l4.6-17a1 1 0 0 0 0-.66zm-.31 31.1A2.75 2.75 0 0 1 33 94.17l3.41-14.32a1 1 0 0 0-.16-.81l-7.45-10.3a1 1 0 0 0-1.37-.25L25.13 70a1 1 0 0 0-.44.9l1.67 23.7a2.74 2.74 0 0 1-2.45 2.92h-.34a2.76 2.76 0 0 1-3-2.34l-4.29-29.35 7-12.45a1 1 0 0 0-.07-1.09l-10.69-14.5 2.05-13.22a1.75 1.75 0 0 1 1.68-1.49 1.69 1.69 0 0 1 1.36.58 1.76 1.76 0 0 1 .39 1.41l-1.38 10.77a1 1 0 0 0 .28.82l8 8.3a1 1 0 0 0 .87.3l11.37-1.69a1 1 0 0 0 .68-.43l6.53-9.76a1 1 0 0 0 .12-.86L41 21.75a1.77 1.77 0 0 1-.09-.56 1.84 1.84 0 0 1 3.58-.58l4.32 13L38.87 52a1 1 0 0 0-.11.3l-2.15 12.08a1 1 0 0 0 .07.58l6.16 13.89z" fill="#000000" opacity="1" data-original="#000000"></path><path d="M22.59 32.84A7.38 7.38 0 1 0 30 25.47a7.39 7.39 0 0 0-7.41 7.37zm12.76 0A5.38 5.38 0 1 1 30 27.47a5.39 5.39 0 0 1 5.35 5.37zM60 21.72c2.87 0 5.11-1.73 5.2-4l1.32-14.15c1.28-.09 3.87 0 4.64 2.19a1 1 0 0 0 1.28.61 1 1 0 0 0 .61-1.27c-1.27-3.61-5.56-3.81-7.64-3.41a1 1 0 0 0-.81.89l-1.13 12A6.07 6.07 0 0 0 60 13.54c-2.93 0-5.23 1.79-5.23 4.09S57 21.72 60 21.72zm0-6.18c1.74 0 3.22.95 3.22 2.09s-1.51 2.09-3.22 2.09-3.23-1-3.23-2.09 1.45-2.09 3.23-2.09zM8.08 52.4a1 1 0 0 0-.81.89l-.79 8.43a4.88 4.88 0 0 0-2.36-.59C1.81 61.13 0 62.57 0 64.41s1.81 3.29 4.12 3.29 4-1.38 4.09-3.15l1-10.21c.92 0 2.48.13 2.94 1.45a1 1 0 1 0 1.85-.71c-1-2.83-4.3-2.99-5.92-2.68zm-4 13.3C2.87 65.7 2 65 2 64.41s.87-1.28 2.12-1.28 2.11.68 2.11 1.28-.87 1.29-2.11 1.29zM99.21 48.9c-1-2.83-4.32-3-5.94-2.68a1 1 0 0 0-.8.89l-.8 8.43a4.83 4.83 0 0 0-2.36-.54c-2.31 0-4.12 1.44-4.12 3.28s1.81 3.29 4.12 3.29 4-1.38 4.1-3.15l1-10.21c.94 0 2.48.13 2.94 1.45a1 1 0 1 0 1.89-.67zm-9.9 10.62c-1.25 0-2.12-.68-2.12-1.29S88.06 57 89.31 57s2.11.68 2.11 1.28-.87 1.24-2.11 1.24zM88.21 12.9a1 1 0 0 0 1 .72.9.9 0 0 0 .28 0 1 1 0 0 0 .68-1.24l-3-10.07a1 1 0 0 0-1.24-.68 1 1 0 0 0-.68 1.25zM94.71 13.17a1 1 0 0 0 .84.45.94.94 0 0 0 .55-.17 1 1 0 0 0 .28-1.38l-1-1.56a1 1 0 0 0-1.67 1.11zM78.68 13.45a.94.94 0 0 0 .55.17 1 1 0 0 0 .83-.45l1-1.55a1 1 0 1 0-1.66-1.11l-1 1.56a1 1 0 0 0 .28 1.38zM32.29 17.16a1 1 0 0 0 1 .72 1.35 1.35 0 0 0 .28 0 1 1 0 0 0 .68-1.25l-3-10.06A1 1 0 0 0 30 5.85a1 1 0 0 0-.68 1.24zM38.79 17.43a1 1 0 0 0 1.39.28 1 1 0 0 0 .28-1.39l-1-1.55a1 1 0 0 0-1.67 1.11zM22.76 17.71a1 1 0 0 0 .55.17 1 1 0 0 0 .83-.45l1-1.55a1 1 0 0 0-.28-1.39 1 1 0 0 0-1.38.28l-1 1.55a1 1 0 0 0 .28 1.39zM8.09 12a1.35 1.35 0 0 0 .28 0 1 1 0 0 0 1-.72l3-10.07a1 1 0 1 0-1.99-.49l-3 10.06A1 1 0 0 0 8.09 12zM1.44 11.9a1 1 0 0 0 1.39-.28l1-1.55A1 1 0 1 0 2.19 9l-1 1.55a1 1 0 0 0 .25 1.35zM17.48 11.62a1 1 0 0 0 .83.45 1 1 0 0 0 .55-.17 1 1 0 0 0 .28-1.39L18.11 9a1 1 0 0 0-1.38-.28 1 1 0 0 0-.28 1.39z" fill="#000000" opacity="1" data-original="#000000"></path></g></g></g></svg>